<?xml version="1.0" encoding="UTF-8"?>
<svg xmlns="http://www.w3.org/2000/svg" xmlns:xlink="http://www.w3.org/1999/xlink" width="96pt" height="96pt" viewBox="0 0 96 96" version="1.1">
<g id="surface25485537">
<path style=" stroke:none;fill-rule:nonzero;fill:rgb(36.470588%,25.098039%,21.568627%);fill-opacity:1;" d="M 84 34.601562 C 84 75.601562 48 88 48 88 C 48 88 12 75.601562 12 34.601562 C 12 29.601562 12.398438 25.398438 12.800781 22 C 13.398438 17 16.800781 13 21.601562 11.800781 C 27.800781 10 37.601562 8 48 8 C 58.398438 8 68.199219 10 74.601562 11.800781 C 79.398438 13 82.800781 17.199219 83.398438 22 C 83.601562 25.398438 84 29.800781 84 34.601562 Z M 84 34.601562 "/>
<path style=" stroke:none;fill-rule:nonzero;fill:rgb(29.803922%,68.627451%,31.372549%);fill-opacity:1;" d="M 48 14 C 57.800781 14 67 16 73 17.601562 C 75.398438 18.199219 77 20.199219 77.398438 22.800781 C 77.800781 26.601562 78 30.601562 78 34.601562 C 78 65.800781 55 78.398438 48 81.398438 C 41 78.199219 18 65.601562 18 34.601562 C 18 30.601562 18.199219 26.601562 18.601562 22.800781 C 18.800781 20.199219 20.601562 18.199219 23 17.601562 C 29 16 38.199219 14 48 14 M 48 8 C 37.601562 8 27.800781 10 21.398438 11.800781 C 16.800781 13 13.199219 17.199219 12.800781 22 C 12.398438 25.398438 12 29.800781 12 34.601562 C 12 75.601562 48 88 48 88 C 48 88 84 75.601562 84 34.601562 C 84 29.601562 83.601562 25.398438 83.199219 22 C 82.601562 17 79.199219 13 74.398438 11.800781 C 68.199219 10 58.398438 8 48 8 Z M 48 8 "/>
<path style=" stroke:none;fill-rule:nonzero;fill:rgb(86.27451%,92.941176%,78.431373%);fill-opacity:1;" d="M 46 56 L 50 56 L 50 72 L 46 72 Z M 46 56 "/>
<path style=" stroke:none;fill-rule:nonzero;fill:rgb(29.803922%,68.627451%,31.372549%);fill-opacity:1;" d="M 48 20 C 48 20 36 30 36 46 C 36 56.398438 42.601562 63 46 66 L 48 60 L 50 66 C 53.398438 63 60 56.398438 60 46 C 60 30 48 20 48 20 Z M 48 20 "/>
<path style=" stroke:none;fill-rule:nonzero;fill:rgb(50.588235%,78.039216%,51.764706%);fill-opacity:1;" d="M 48 20 C 48 20 36 30 36 46 C 36 56.398438 42.601562 63 46 66 L 48 60 Z M 48 20 "/>
<path style=" stroke:none;fill-rule:nonzero;fill:rgb(37.647059%,49.019608%,54.509804%);fill-opacity:1;" d="M 92.039062 76.441406 C 92.238281 75.640625 92.238281 74.839844 92.238281 74.242188 C 92.238281 73.640625 92.238281 72.640625 92.039062 72.042969 L 96.636719 68.640625 C 97.039062 68.242188 97.238281 67.640625 97.039062 67.242188 L 92.4375 59.441406 C 92.238281 59.042969 91.636719 58.839844 91.039062 59.042969 L 85.835938 61.441406 C 84.636719 60.441406 83.238281 59.640625 81.835938 59.042969 L 81.238281 53.242188 C 81.238281 52.640625 80.636719 52.242188 80.238281 52.242188 L 71.039062 52.242188 C 70.636719 52.242188 70.039062 52.640625 70.039062 53.242188 L 69.4375 59.042969 C 68.039062 59.441406 66.636719 60.242188 65.4375 61.242188 L 60.238281 58.839844 C 59.636719 58.640625 59.039062 58.839844 58.835938 59.242188 L 54.238281 67.242188 C 54.039062 67.640625 54.238281 68.242188 54.636719 68.640625 L 59.238281 72.042969 C 59.039062 72.839844 59.039062 73.640625 59.039062 74.242188 C 59.039062 74.839844 59.039062 75.839844 59.238281 76.441406 L 54.636719 79.839844 C 54.238281 80.242188 54.039062 80.839844 54.238281 81.242188 L 58.835938 89.042969 C 59.039062 89.441406 59.636719 89.640625 60.238281 89.441406 L 65.4375 87.042969 C 66.636719 88.042969 68.039062 88.839844 69.4375 89.441406 L 70.039062 95.242188 C 70.039062 95.839844 70.636719 96.242188 71.039062 96.242188 L 80.039062 96.242188 C 80.636719 96.242188 81.039062 95.839844 81.039062 95.242188 L 81.636719 89.441406 C 83.039062 88.839844 84.4375 88.042969 85.636719 87.042969 L 90.835938 89.441406 C 91.4375 89.640625 92.039062 89.441406 92.238281 89.042969 L 96.835938 81.242188 C 97.039062 80.839844 97.039062 80.042969 96.4375 79.839844 Z M 75.636719 84.640625 C 69.835938 84.640625 65.238281 80.042969 65.238281 74.242188 C 65.238281 68.441406 69.835938 63.839844 75.636719 63.839844 C 81.4375 63.839844 86.039062 68.441406 86.039062 74.242188 C 86.039062 80.042969 81.4375 84.640625 75.636719 84.640625 "/>
<path style=" stroke:none;fill-rule:nonzero;fill:rgb(27.058824%,35.294118%,39.215686%);fill-opacity:1;" d="M 75.636719 62.242188 C 69.039062 62.242188 63.636719 67.640625 63.636719 74.242188 C 63.636719 80.839844 69.039062 86.242188 75.636719 86.242188 C 82.238281 86.242188 87.636719 80.839844 87.636719 74.242188 C 87.636719 67.640625 82.238281 62.242188 75.636719 62.242188 M 75.636719 80.242188 C 72.238281 80.242188 69.636719 77.640625 69.636719 74.242188 C 69.636719 70.839844 72.238281 68.242188 75.636719 68.242188 C 79.039062 68.242188 81.636719 70.839844 81.636719 74.242188 C 81.636719 77.640625 79.039062 80.242188 75.636719 80.242188 "/>
</g>
</svg>
